# xmcd
#
# Track frame offsets: 
#        151
#        48205
#        81613
#        101421
#        126800
#        165440
#
# Disc length: 2784 seconds
#
# Revision: 0
# Processed by: cddbd v1.5.2PL0 Copyright (c) Steve Scherf et al.
# Submitted via: ExactAudioCopyFreeDBPlugin 1.0
#
DISCID=430ade06
DTITLE=POONSRI CHAROENPONG - THAI DANCING FOLK SONGS 2
DYEAR=1900
DGENRE=
TTITLE0=RAM CHUI CHAI BRAHM
TTITLE1=RABAN KAI
TTITLE2=RAM BORATETH
TTITLE3=RAM KRIDSADA PINIHAN
TTITLE4=RAM PLAI CHUMPON
TTITLE5=RABAM DAO DUENG
EXTD=
EXTT0=
EXTT1=
EXTT2=
EXTT3=
EXTT4=
EXTT5=
PLAYORDER=
